<svg xmlns="http://www.w3.org/2000/svg" width="580" height="600" viewBox="0 0 580 600">
  <defs>
    <filter id="qs"><feDropShadow dx="0" dy="2" stdDeviation="4" flood-color="#00cfff" flood-opacity="0.7"/></filter>
    <linearGradient id="bg" x1="0" y1="0" x2="0" y2="1">
      <stop offset="0%" stop-color="#0a1628"/>
      <stop offset="100%" stop-color="#040a12"/>
    </linearGradient>
    <linearGradient id="frame" x1="0" y1="0" x2="1" y2="1">
      <stop offset="0%" stop-color="#e0f4ff"/>
      <stop offset="40%" stop-color="#6ab4d8"/>
      <stop offset="100%" stop-color="#1a5070"/>
    </linearGradient>
  </defs>

  <rect width="580" height="600" rx="14" fill="url(#bg)"/>
  <rect width="580" height="600" rx="14" fill="none" stroke="#1a5070" stroke-width="2"/>

  <!-- Header -->
  <rect x="0" y="0" width="580" height="52" rx="14" fill="#060f1e"/>
  <rect x="0" y="38" width="580" height="14" fill="#060f1e"/>
  <circle cx="22" cy="26" r="7" fill="#ff5f57"/>
  <circle cx="44" cy="26" r="7" fill="#febc2e"/>
  <circle cx="66" cy="26" r="7" fill="#28c840"/>
  <text x="290" y="22" text-anchor="middle" font-family="'Segoe UI',Arial" font-size="14"
        font-weight="bold" fill="#7dd4f0">N-Queens Solver — N=10, Solution #1</text>
  <text x="290" y="40" text-anchor="middle" font-family="'Segoe UI',Arial" font-size="10"
        fill="#4a8aaa">board=[0,2,5,7,9,4,8,1,3,6] · No two queens attack each other</text>

  <!-- Diamond/silver frame -->
  <rect x="51" y="56" width="478" height="478" rx="6" fill="url(#frame)"/>

  <!-- Board: 10×10, cell=47px, origin (55,60) — ice-white / steel-blue -->
  <!-- Row 0 --><rect x="55"  y="60"  width="47" height="47" fill="#dff0f8"/><rect x="102" y="60"  width="47" height="47" fill="#4a8fb5"/><rect x="149" y="60"  width="47" height="47" fill="#dff0f8"/><rect x="196" y="60"  width="47" height="47" fill="#4a8fb5"/><rect x="243" y="60"  width="47" height="47" fill="#dff0f8"/><rect x="290" y="60"  width="47" height="47" fill="#4a8fb5"/><rect x="337" y="60"  width="47" height="47" fill="#dff0f8"/><rect x="384" y="60"  width="47" height="47" fill="#4a8fb5"/><rect x="431" y="60"  width="47" height="47" fill="#dff0f8"/><rect x="478" y="60"  width="47" height="47" fill="#4a8fb5"/>
  <!-- Row 1 --><rect x="55"  y="107" width="47" height="47" fill="#4a8fb5"/><rect x="102" y="107" width="47" height="47" fill="#dff0f8"/><rect x="149" y="107" width="47" height="47" fill="#4a8fb5"/><rect x="196" y="107" width="47" height="47" fill="#dff0f8"/><rect x="243" y="107" width="47" height="47" fill="#4a8fb5"/><rect x="290" y="107" width="47" height="47" fill="#dff0f8"/><rect x="337" y="107" width="47" height="47" fill="#4a8fb5"/><rect x="384" y="107" width="47" height="47" fill="#dff0f8"/><rect x="431" y="107" width="47" height="47" fill="#4a8fb5"/><rect x="478" y="107" width="47" height="47" fill="#dff0f8"/>
  <!-- Row 2 --><rect x="55"  y="154" width="47" height="47" fill="#dff0f8"/><rect x="102" y="154" width="47" height="47" fill="#4a8fb5"/><rect x="149" y="154" width="47" height="47" fill="#dff0f8"/><rect x="196" y="154" width="47" height="47" fill="#4a8fb5"/><rect x="243" y="154" width="47" height="47" fill="#dff0f8"/><rect x="290" y="154" width="47" height="47" fill="#4a8fb5"/><rect x="337" y="154" width="47" height="47" fill="#dff0f8"/><rect x="384" y="154" width="47" height="47" fill="#4a8fb5"/><rect x="431" y="154" width="47" height="47" fill="#dff0f8"/><rect x="478" y="154" width="47" height="47" fill="#4a8fb5"/>
  <!-- Row 3 --><rect x="55"  y="201" width="47" height="47" fill="#4a8fb5"/><rect x="102" y="201" width="47" height="47" fill="#dff0f8"/><rect x="149" y="201" width="47" height="47" fill="#4a8fb5"/><rect x="196" y="201" width="47" height="47" fill="#dff0f8"/><rect x="243" y="201" width="47" height="47" fill="#4a8fb5"/><rect x="290" y="201" width="47" height="47" fill="#dff0f8"/><rect x="337" y="201" width="47" height="47" fill="#4a8fb5"/><rect x="384" y="201" width="47" height="47" fill="#dff0f8"/><rect x="431" y="201" width="47" height="47" fill="#4a8fb5"/><rect x="478" y="201" width="47" height="47" fill="#dff0f8"/>
  <!-- Row 4 --><rect x="55"  y="248" width="47" height="47" fill="#dff0f8"/><rect x="102" y="248" width="47" height="47" fill="#4a8fb5"/><rect x="149" y="248" width="47" height="47" fill="#dff0f8"/><rect x="196" y="248" width="47" height="47" fill="#4a8fb5"/><rect x="243" y="248" width="47" height="47" fill="#dff0f8"/><rect x="290" y="248" width="47" height="47" fill="#4a8fb5"/><rect x="337" y="248" width="47" height="47" fill="#dff0f8"/><rect x="384" y="248" width="47" height="47" fill="#4a8fb5"/><rect x="431" y="248" width="47" height="47" fill="#dff0f8"/><rect x="478" y="248" width="47" height="47" fill="#4a8fb5"/>
  <!-- Row 5 --><rect x="55"  y="295" width="47" height="47" fill="#4a8fb5"/><rect x="102" y="295" width="47" height="47" fill="#dff0f8"/><rect x="149" y="295" width="47" height="47" fill="#4a8fb5"/><rect x="196" y="295" width="47" height="47" fill="#dff0f8"/><rect x="243" y="295" width="47" height="47" fill="#4a8fb5"/><rect x="290" y="295" width="47" height="47" fill="#dff0f8"/><rect x="337" y="295" width="47" height="47" fill="#4a8fb5"/><rect x="384" y="295" width="47" height="47" fill="#dff0f8"/><rect x="431" y="295" width="47" height="47" fill="#4a8fb5"/><rect x="478" y="295" width="47" height="47" fill="#dff0f8"/>
  <!-- Row 6 --><rect x="55"  y="342" width="47" height="47" fill="#dff0f8"/><rect x="102" y="342" width="47" height="47" fill="#4a8fb5"/><rect x="149" y="342" width="47" height="47" fill="#dff0f8"/><rect x="196" y="342" width="47" height="47" fill="#4a8fb5"/><rect x="243" y="342" width="47" height="47" fill="#dff0f8"/><rect x="290" y="342" width="47" height="47" fill="#4a8fb5"/><rect x="337" y="342" width="47" height="47" fill="#dff0f8"/><rect x="384" y="342" width="47" height="47" fill="#4a8fb5"/><rect x="431" y="342" width="47" height="47" fill="#dff0f8"/><rect x="478" y="342" width="47" height="47" fill="#4a8fb5"/>
  <!-- Row 7 --><rect x="55"  y="389" width="47" height="47" fill="#4a8fb5"/><rect x="102" y="389" width="47" height="47" fill="#dff0f8"/><rect x="149" y="389" width="47" height="47" fill="#4a8fb5"/><rect x="196" y="389" width="47" height="47" fill="#dff0f8"/><rect x="243" y="389" width="47" height="47" fill="#4a8fb5"/><rect x="290" y="389" width="47" height="47" fill="#dff0f8"/><rect x="337" y="389" width="47" height="47" fill="#4a8fb5"/><rect x="384" y="389" width="47" height="47" fill="#dff0f8"/><rect x="431" y="389" width="47" height="47" fill="#4a8fb5"/><rect x="478" y="389" width="47" height="47" fill="#dff0f8"/>
  <!-- Row 8 --><rect x="55"  y="436" width="47" height="47" fill="#dff0f8"/><rect x="102" y="436" width="47" height="47" fill="#4a8fb5"/><rect x="149" y="436" width="47" height="47" fill="#dff0f8"/><rect x="196" y="436" width="47" height="47" fill="#4a8fb5"/><rect x="243" y="436" width="47" height="47" fill="#dff0f8"/><rect x="290" y="436" width="47" height="47" fill="#4a8fb5"/><rect x="337" y="436" width="47" height="47" fill="#dff0f8"/><rect x="384" y="436" width="47" height="47" fill="#4a8fb5"/><rect x="431" y="436" width="47" height="47" fill="#dff0f8"/><rect x="478" y="436" width="47" height="47" fill="#4a8fb5"/>
  <!-- Row 9 --><rect x="55"  y="483" width="47" height="47" fill="#4a8fb5"/><rect x="102" y="483" width="47" height="47" fill="#dff0f8"/><rect x="149" y="483" width="47" height="47" fill="#4a8fb5"/><rect x="196" y="483" width="47" height="47" fill="#dff0f8"/><rect x="243" y="483" width="47" height="47" fill="#4a8fb5"/><rect x="290" y="483" width="47" height="47" fill="#dff0f8"/><rect x="337" y="483" width="47" height="47" fill="#4a8fb5"/><rect x="384" y="483" width="47" height="47" fill="#dff0f8"/><rect x="431" y="483" width="47" height="47" fill="#4a8fb5"/><rect x="478" y="483" width="47" height="47" fill="#dff0f8"/>

  <!-- Queens: board=[0,2,5,7,9,4,8,1,3,6] — diamond/cyan glow
       cx = 55 + col*47 + 23,  qy = 60 + row*47 + 35 -->
  <text x="78"  y="95"  text-anchor="middle" font-size="36" font-family="serif" fill="#e0f8ff" filter="url(#qs)">♛</text>
  <text x="172" y="142" text-anchor="middle" font-size="36" font-family="serif" fill="#e0f8ff" filter="url(#qs)">♛</text>
  <text x="313" y="189" text-anchor="middle" font-size="36" font-family="serif" fill="#e0f8ff" filter="url(#qs)">♛</text>
  <text x="407" y="236" text-anchor="middle" font-size="36" font-family="serif" fill="#e0f8ff" filter="url(#qs)">♛</text>
  <text x="501" y="283" text-anchor="middle" font-size="36" font-family="serif" fill="#e0f8ff" filter="url(#qs)">♛</text>
  <text x="266" y="330" text-anchor="middle" font-size="36" font-family="serif" fill="#e0f8ff" filter="url(#qs)">♛</text>
  <text x="454" y="377" text-anchor="middle" font-size="36" font-family="serif" fill="#e0f8ff" filter="url(#qs)">♛</text>
  <text x="125" y="424" text-anchor="middle" font-size="36" font-family="serif" fill="#e0f8ff" filter="url(#qs)">♛</text>
  <text x="219" y="471" text-anchor="middle" font-size="36" font-family="serif" fill="#e0f8ff" filter="url(#qs)">♛</text>
  <text x="360" y="518" text-anchor="middle" font-size="36" font-family="serif" fill="#e0f8ff" filter="url(#qs)">♛</text>

  <!-- Footer -->
  <text x="290" y="552" text-anchor="middle" font-family="'Segoe UI',Arial" font-size="11"
        fill="#7dd4f0">✓ 724 distinct solutions  ·  No two queens attack each other</text>
  <text x="290" y="568" text-anchor="middle" font-family="'Segoe UI',Arial" font-size="10"
        fill="#4a8aaa">Aksum University, AIT  ·  Design and Analysis of Algorithms</text>
  <text x="290" y="584" text-anchor="middle" font-family="'Segoe UI',Arial" font-size="10"
        fill="#2a5a70">Weldearegay Gebrey · Eyerusalem Teklay · Shewit Legese</text>
</svg>
