<svg xmlns="http://www.w3.org/2000/svg" width="640" height="640" viewBox="0 0 640 640">
  <defs>
    <filter id="qs">
      <feDropShadow dx="1" dy="2" stdDeviation="2.5" flood-color="#000" flood-opacity="0.6"/>
    </filter>
    <linearGradient id="bg" x1="0" y1="0" x2="0" y2="1">
      <stop offset="0%" stop-color="#1e2a3a"/>
      <stop offset="100%" stop-color="#0d1117"/>
    </linearGradient>
    <linearGradient id="frame" x1="0" y1="0" x2="1" y2="1">
      <stop offset="0%" stop-color="#c8a96e"/>
      <stop offset="50%" stop-color="#8B6914"/>
      <stop offset="100%" stop-color="#6b4f10"/>
    </linearGradient>
  </defs>

  <!-- Background -->
  <rect width="640" height="640" rx="14" fill="url(#bg)"/>
  <rect width="640" height="640" rx="14" fill="none" stroke="#30363d" stroke-width="1.5"/>

  <!-- Header -->
  <rect x="0" y="0" width="640" height="52" rx="14" fill="#161b22"/>
  <rect x="0" y="38" width="640" height="14" fill="#161b22"/>
  <circle cx="22" cy="26" r="7" fill="#ff5f57"/>
  <circle cx="44" cy="26" r="7" fill="#febc2e"/>
  <circle cx="66" cy="26" r="7" fill="#28c840"/>
  <text x="320" y="22" text-anchor="middle" font-family="'Segoe UI',Arial" font-size="14"
        font-weight="bold" fill="#58A6FF">N-Queens Solver — N=12, Solution #1</text>
  <text x="320" y="40" text-anchor="middle" font-family="'Segoe UI',Arial" font-size="10"
        fill="#8b949e">board=[0,2,4,7,9,11,5,10,1,6,8,3] · No two queens attack each other</text>

  <!-- Wood frame: 12×12 board, cell=44px, board=528px, origin (56,60) -->
  <rect x="52" y="56" width="536" height="536" rx="5" fill="url(#frame)"/>

  <!-- Board cells: cell=44px, origin (56,60) -->
  <!-- Row 0  --><rect x="56"  y="60"  width="44" height="44" fill="#EEEED2"/><rect x="100" y="60"  width="44" height="44" fill="#769656"/><rect x="144" y="60"  width="44" height="44" fill="#EEEED2"/><rect x="188" y="60"  width="44" height="44" fill="#769656"/><rect x="232" y="60"  width="44" height="44" fill="#EEEED2"/><rect x="276" y="60"  width="44" height="44" fill="#769656"/><rect x="320" y="60"  width="44" height="44" fill="#EEEED2"/><rect x="364" y="60"  width="44" height="44" fill="#769656"/><rect x="408" y="60"  width="44" height="44" fill="#EEEED2"/><rect x="452" y="60"  width="44" height="44" fill="#769656"/><rect x="496" y="60"  width="44" height="44" fill="#EEEED2"/><rect x="540" y="60"  width="44" height="44" fill="#769656"/>
  <!-- Row 1  --><rect x="56"  y="104" width="44" height="44" fill="#769656"/><rect x="100" y="104" width="44" height="44" fill="#EEEED2"/><rect x="144" y="104" width="44" height="44" fill="#769656"/><rect x="188" y="104" width="44" height="44" fill="#EEEED2"/><rect x="232" y="104" width="44" height="44" fill="#769656"/><rect x="276" y="104" width="44" height="44" fill="#EEEED2"/><rect x="320" y="104" width="44" height="44" fill="#769656"/><rect x="364" y="104" width="44" height="44" fill="#EEEED2"/><rect x="408" y="104" width="44" height="44" fill="#769656"/><rect x="452" y="104" width="44" height="44" fill="#EEEED2"/><rect x="496" y="104" width="44" height="44" fill="#769656"/><rect x="540" y="104" width="44" height="44" fill="#EEEED2"/>
  <!-- Row 2  --><rect x="56"  y="148" width="44" height="44" fill="#EEEED2"/><rect x="100" y="148" width="44" height="44" fill="#769656"/><rect x="144" y="148" width="44" height="44" fill="#EEEED2"/><rect x="188" y="148" width="44" height="44" fill="#769656"/><rect x="232" y="148" width="44" height="44" fill="#EEEED2"/><rect x="276" y="148" width="44" height="44" fill="#769656"/><rect x="320" y="148" width="44" height="44" fill="#EEEED2"/><rect x="364" y="148" width="44" height="44" fill="#769656"/><rect x="408" y="148" width="44" height="44" fill="#EEEED2"/><rect x="452" y="148" width="44" height="44" fill="#769656"/><rect x="496" y="148" width="44" height="44" fill="#EEEED2"/><rect x="540" y="148" width="44" height="44" fill="#769656"/>
  <!-- Row 3  --><rect x="56"  y="192" width="44" height="44" fill="#769656"/><rect x="100" y="192" width="44" height="44" fill="#EEEED2"/><rect x="144" y="192" width="44" height="44" fill="#769656"/><rect x="188" y="192" width="44" height="44" fill="#EEEED2"/><rect x="232" y="192" width="44" height="44" fill="#769656"/><rect x="276" y="192" width="44" height="44" fill="#EEEED2"/><rect x="320" y="192" width="44" height="44" fill="#769656"/><rect x="364" y="192" width="44" height="44" fill="#EEEED2"/><rect x="408" y="192" width="44" height="44" fill="#769656"/><rect x="452" y="192" width="44" height="44" fill="#EEEED2"/><rect x="496" y="192" width="44" height="44" fill="#769656"/><rect x="540" y="192" width="44" height="44" fill="#EEEED2"/>
  <!-- Row 4  --><rect x="56"  y="236" width="44" height="44" fill="#EEEED2"/><rect x="100" y="236" width="44" height="44" fill="#769656"/><rect x="144" y="236" width="44" height="44" fill="#EEEED2"/><rect x="188" y="236" width="44" height="44" fill="#769656"/><rect x="232" y="236" width="44" height="44" fill="#EEEED2"/><rect x="276" y="236" width="44" height="44" fill="#769656"/><rect x="320" y="236" width="44" height="44" fill="#EEEED2"/><rect x="364" y="236" width="44" height="44" fill="#769656"/><rect x="408" y="236" width="44" height="44" fill="#EEEED2"/><rect x="452" y="236" width="44" height="44" fill="#769656"/><rect x="496" y="236" width="44" height="44" fill="#EEEED2"/><rect x="540" y="236" width="44" height="44" fill="#769656"/>
  <!-- Row 5  --><rect x="56"  y="280" width="44" height="44" fill="#769656"/><rect x="100" y="280" width="44" height="44" fill="#EEEED2"/><rect x="144" y="280" width="44" height="44" fill="#769656"/><rect x="188" y="280" width="44" height="44" fill="#EEEED2"/><rect x="232" y="280" width="44" height="44" fill="#769656"/><rect x="276" y="280" width="44" height="44" fill="#EEEED2"/><rect x="320" y="280" width="44" height="44" fill="#769656"/><rect x="364" y="280" width="44" height="44" fill="#EEEED2"/><rect x="408" y="280" width="44" height="44" fill="#769656"/><rect x="452" y="280" width="44" height="44" fill="#EEEED2"/><rect x="496" y="280" width="44" height="44" fill="#769656"/><rect x="540" y="280" width="44" height="44" fill="#EEEED2"/>
  <!-- Row 6  --><rect x="56"  y="324" width="44" height="44" fill="#EEEED2"/><rect x="100" y="324" width="44" height="44" fill="#769656"/><rect x="144" y="324" width="44" height="44" fill="#EEEED2"/><rect x="188" y="324" width="44" height="44" fill="#769656"/><rect x="232" y="324" width="44" height="44" fill="#EEEED2"/><rect x="276" y="324" width="44" height="44" fill="#769656"/><rect x="320" y="324" width="44" height="44" fill="#EEEED2"/><rect x="364" y="324" width="44" height="44" fill="#769656"/><rect x="408" y="324" width="44" height="44" fill="#EEEED2"/><rect x="452" y="324" width="44" height="44" fill="#769656"/><rect x="496" y="324" width="44" height="44" fill="#EEEED2"/><rect x="540" y="324" width="44" height="44" fill="#769656"/>
  <!-- Row 7  --><rect x="56"  y="368" width="44" height="44" fill="#769656"/><rect x="100" y="368" width="44" height="44" fill="#EEEED2"/><rect x="144" y="368" width="44" height="44" fill="#769656"/><rect x="188" y="368" width="44" height="44" fill="#EEEED2"/><rect x="232" y="368" width="44" height="44" fill="#769656"/><rect x="276" y="368" width="44" height="44" fill="#EEEED2"/><rect x="320" y="368" width="44" height="44" fill="#769656"/><rect x="364" y="368" width="44" height="44" fill="#EEEED2"/><rect x="408" y="368" width="44" height="44" fill="#769656"/><rect x="452" y="368" width="44" height="44" fill="#EEEED2"/><rect x="496" y="368" width="44" height="44" fill="#769656"/><rect x="540" y="368" width="44" height="44" fill="#EEEED2"/>
  <!-- Row 8  --><rect x="56"  y="412" width="44" height="44" fill="#EEEED2"/><rect x="100" y="412" width="44" height="44" fill="#769656"/><rect x="144" y="412" width="44" height="44" fill="#EEEED2"/><rect x="188" y="412" width="44" height="44" fill="#769656"/><rect x="232" y="412" width="44" height="44" fill="#EEEED2"/><rect x="276" y="412" width="44" height="44" fill="#769656"/><rect x="320" y="412" width="44" height="44" fill="#EEEED2"/><rect x="364" y="412" width="44" height="44" fill="#769656"/><rect x="408" y="412" width="44" height="44" fill="#EEEED2"/><rect x="452" y="412" width="44" height="44" fill="#769656"/><rect x="496" y="412" width="44" height="44" fill="#EEEED2"/><rect x="540" y="412" width="44" height="44" fill="#769656"/>
  <!-- Row 9  --><rect x="56"  y="456" width="44" height="44" fill="#769656"/><rect x="100" y="456" width="44" height="44" fill="#EEEED2"/><rect x="144" y="456" width="44" height="44" fill="#769656"/><rect x="188" y="456" width="44" height="44" fill="#EEEED2"/><rect x="232" y="456" width="44" height="44" fill="#769656"/><rect x="276" y="456" width="44" height="44" fill="#EEEED2"/><rect x="320" y="456" width="44" height="44" fill="#769656"/><rect x="364" y="456" width="44" height="44" fill="#EEEED2"/><rect x="408" y="456" width="44" height="44" fill="#769656"/><rect x="452" y="456" width="44" height="44" fill="#EEEED2"/><rect x="496" y="456" width="44" height="44" fill="#769656"/><rect x="540" y="456" width="44" height="44" fill="#EEEED2"/>
  <!-- Row 10 --><rect x="56"  y="500" width="44" height="44" fill="#EEEED2"/><rect x="100" y="500" width="44" height="44" fill="#769656"/><rect x="144" y="500" width="44" height="44" fill="#EEEED2"/><rect x="188" y="500" width="44" height="44" fill="#769656"/><rect x="232" y="500" width="44" height="44" fill="#EEEED2"/><rect x="276" y="500" width="44" height="44" fill="#769656"/><rect x="320" y="500" width="44" height="44" fill="#EEEED2"/><rect x="364" y="500" width="44" height="44" fill="#769656"/><rect x="408" y="500" width="44" height="44" fill="#EEEED2"/><rect x="452" y="500" width="44" height="44" fill="#769656"/><rect x="496" y="500" width="44" height="44" fill="#EEEED2"/><rect x="540" y="500" width="44" height="44" fill="#769656"/>
  <!-- Row 11 --><rect x="56"  y="544" width="44" height="44" fill="#769656"/><rect x="100" y="544" width="44" height="44" fill="#EEEED2"/><rect x="144" y="544" width="44" height="44" fill="#769656"/><rect x="188" y="544" width="44" height="44" fill="#EEEED2"/><rect x="232" y="544" width="44" height="44" fill="#769656"/><rect x="276" y="544" width="44" height="44" fill="#EEEED2"/><rect x="320" y="544" width="44" height="44" fill="#769656"/><rect x="364" y="544" width="44" height="44" fill="#EEEED2"/><rect x="408" y="544" width="44" height="44" fill="#769656"/><rect x="452" y="544" width="44" height="44" fill="#EEEED2"/><rect x="496" y="544" width="44" height="44" fill="#769656"/><rect x="540" y="544" width="44" height="44" fill="#EEEED2"/>

  <!-- Queens: board=[0,2,4,7,9,11,5,10,1,6,8,3]
       center x = 56 + col*44 + 22
       queen y  = 60 + row*44 + 33  -->
  <!-- Row0, Col0  --> <text x="78"  y="93"  text-anchor="middle" font-size="32" font-family="serif" fill="#FFD700" filter="url(#qs)">♛</text>
  <!-- Row1, Col2  --> <text x="166" y="137" text-anchor="middle" font-size="32" font-family="serif" fill="#FFD700" filter="url(#qs)">♛</text>
  <!-- Row2, Col4  --> <text x="254" y="181" text-anchor="middle" font-size="32" font-family="serif" fill="#FFD700" filter="url(#qs)">♛</text>
  <!-- Row3, Col7  --> <text x="386" y="225" text-anchor="middle" font-size="32" font-family="serif" fill="#FFD700" filter="url(#qs)">♛</text>
  <!-- Row4, Col9  --> <text x="474" y="269" text-anchor="middle" font-size="32" font-family="serif" fill="#FFD700" filter="url(#qs)">♛</text>
  <!-- Row5, Col11 --> <text x="562" y="313" text-anchor="middle" font-size="32" font-family="serif" fill="#FFD700" filter="url(#qs)">♛</text>
  <!-- Row6, Col5  --> <text x="298" y="357" text-anchor="middle" font-size="32" font-family="serif" fill="#FFD700" filter="url(#qs)">♛</text>
  <!-- Row7, Col10 --> <text x="518" y="401" text-anchor="middle" font-size="32" font-family="serif" fill="#FFD700" filter="url(#qs)">♛</text>
  <!-- Row8, Col1  --> <text x="122" y="445" text-anchor="middle" font-size="32" font-family="serif" fill="#FFD700" filter="url(#qs)">♛</text>
  <!-- Row9, Col6  --> <text x="342" y="489" text-anchor="middle" font-size="32" font-family="serif" fill="#FFD700" filter="url(#qs)">♛</text>
  <!-- Row10,Col8  --> <text x="430" y="533" text-anchor="middle" font-size="32" font-family="serif" fill="#FFD700" filter="url(#qs)">♛</text>
  <!-- Row11,Col3  --> <text x="210" y="577" text-anchor="middle" font-size="32" font-family="serif" fill="#FFD700" filter="url(#qs)">♛</text>

  <!-- Footer -->
  <text x="320" y="606" text-anchor="middle" font-family="'Segoe UI',Arial" font-size="11"
        fill="#58A6FF">✓ 14,200 distinct solutions  ·  No two queens attack each other</text>
  <text x="320" y="622" text-anchor="middle" font-family="'Segoe UI',Arial" font-size="10"
        fill="#8b949e">Aksum University, AIT  ·  Design and Analysis of Algorithms</text>
</svg>
