<svg xmlns="http://www.w3.org/2000/svg" width="640" height="660" viewBox="0 0 640 660">
  <defs>
    <filter id="qs"><feDropShadow dx="0" dy="2" stdDeviation="4" flood-color="#ff2244" flood-opacity="0.8"/></filter>
    <linearGradient id="bg" x1="0" y1="0" x2="0" y2="1">
      <stop offset="0%" stop-color="#1a0608"/>
      <stop offset="100%" stop-color="#080204"/>
    </linearGradient>
    <linearGradient id="frame" x1="0" y1="0" x2="1" y2="1">
      <stop offset="0%" stop-color="#ff9999"/>
      <stop offset="40%" stop-color="#cc2244"/>
      <stop offset="100%" stop-color="#7a0018"/>
    </linearGradient>
  </defs>

  <rect width="640" height="660" rx="14" fill="url(#bg)"/>
  <rect width="640" height="660" rx="14" fill="none" stroke="#7a0018" stroke-width="2"/>

  <!-- Header -->
  <rect x="0" y="0" width="640" height="52" rx="14" fill="#100204"/>
  <rect x="0" y="38" width="640" height="14" fill="#100204"/>
  <circle cx="22" cy="26" r="7" fill="#ff5f57"/>
  <circle cx="44" cy="26" r="7" fill="#febc2e"/>
  <circle cx="66" cy="26" r="7" fill="#28c840"/>
  <text x="320" y="22" text-anchor="middle" font-family="'Segoe UI',Arial" font-size="14"
        font-weight="bold" fill="#ff6680">N-Queens Solver — N=12, Solution #1</text>
  <text x="320" y="40" text-anchor="middle" font-family="'Segoe UI',Arial" font-size="10"
        fill="#aa3344">board=[0,2,4,7,9,11,5,10,1,6,8,3] · No two queens attack each other</text>

  <!-- Ruby/gem frame -->
  <rect x="52" y="56" width="536" height="536" rx="6" fill="url(#frame)"/>

  <!-- Board: 12×12, cell=44px, origin (56,60) — deep-red / dark-rose -->
  <!-- Row 0  --><rect x="56"  y="60"  width="44" height="44" fill="#ffe0e4"/><rect x="100" y="60"  width="44" height="44" fill="#b03050"/><rect x="144" y="60"  width="44" height="44" fill="#ffe0e4"/><rect x="188" y="60"  width="44" height="44" fill="#b03050"/><rect x="232" y="60"  width="44" height="44" fill="#ffe0e4"/><rect x="276" y="60"  width="44" height="44" fill="#b03050"/><rect x="320" y="60"  width="44" height="44" fill="#ffe0e4"/><rect x="364" y="60"  width="44" height="44" fill="#b03050"/><rect x="408" y="60"  width="44" height="44" fill="#ffe0e4"/><rect x="452" y="60"  width="44" height="44" fill="#b03050"/><rect x="496" y="60"  width="44" height="44" fill="#ffe0e4"/><rect x="540" y="60"  width="44" height="44" fill="#b03050"/>
  <!-- Row 1  --><rect x="56"  y="104" width="44" height="44" fill="#b03050"/><rect x="100" y="104" width="44" height="44" fill="#ffe0e4"/><rect x="144" y="104" width="44" height="44" fill="#b03050"/><rect x="188" y="104" width="44" height="44" fill="#ffe0e4"/><rect x="232" y="104" width="44" height="44" fill="#b03050"/><rect x="276" y="104" width="44" height="44" fill="#ffe0e4"/><rect x="320" y="104" width="44" height="44" fill="#b03050"/><rect x="364" y="104" width="44" height="44" fill="#ffe0e4"/><rect x="408" y="104" width="44" height="44" fill="#b03050"/><rect x="452" y="104" width="44" height="44" fill="#ffe0e4"/><rect x="496" y="104" width="44" height="44" fill="#b03050"/><rect x="540" y="104" width="44" height="44" fill="#ffe0e4"/>
  <!-- Row 2  --><rect x="56"  y="148" width="44" height="44" fill="#ffe0e4"/><rect x="100" y="148" width="44" height="44" fill="#b03050"/><rect x="144" y="148" width="44" height="44" fill="#ffe0e4"/><rect x="188" y="148" width="44" height="44" fill="#b03050"/><rect x="232" y="148" width="44" height="44" fill="#ffe0e4"/><rect x="276" y="148" width="44" height="44" fill="#b03050"/><rect x="320" y="148" width="44" height="44" fill="#ffe0e4"/><rect x="364" y="148" width="44" height="44" fill="#b03050"/><rect x="408" y="148" width="44" height="44" fill="#ffe0e4"/><rect x="452" y="148" width="44" height="44" fill="#b03050"/><rect x="496" y="148" width="44" height="44" fill="#ffe0e4"/><rect x="540" y="148" width="44" height="44" fill="#b03050"/>
  <!-- Row 3  --><rect x="56"  y="192" width="44" height="44" fill="#b03050"/><rect x="100" y="192" width="44" height="44" fill="#ffe0e4"/><rect x="144" y="192" width="44" height="44" fill="#b03050"/><rect x="188" y="192" width="44" height="44" fill="#ffe0e4"/><rect x="232" y="192" width="44" height="44" fill="#b03050"/><rect x="276" y="192" width="44" height="44" fill="#ffe0e4"/><rect x="320" y="192" width="44" height="44" fill="#b03050"/><rect x="364" y="192" width="44" height="44" fill="#ffe0e4"/><rect x="408" y="192" width="44" height="44" fill="#b03050"/><rect x="452" y="192" width="44" height="44" fill="#ffe0e4"/><rect x="496" y="192" width="44" height="44" fill="#b03050"/><rect x="540" y="192" width="44" height="44" fill="#ffe0e4"/>
  <!-- Row 4  --><rect x="56"  y="236" width="44" height="44" fill="#ffe0e4"/><rect x="100" y="236" width="44" height="44" fill="#b03050"/><rect x="144" y="236" width="44" height="44" fill="#ffe0e4"/><rect x="188" y="236" width="44" height="44" fill="#b03050"/><rect x="232" y="236" width="44" height="44" fill="#ffe0e4"/><rect x="276" y="236" width="44" height="44" fill="#b03050"/><rect x="320" y="236" width="44" height="44" fill="#ffe0e4"/><rect x="364" y="236" width="44" height="44" fill="#b03050"/><rect x="408" y="236" width="44" height="44" fill="#ffe0e4"/><rect x="452" y="236" width="44" height="44" fill="#b03050"/><rect x="496" y="236" width="44" height="44" fill="#ffe0e4"/><rect x="540" y="236" width="44" height="44" fill="#b03050"/>
  <!-- Row 5  --><rect x="56"  y="280" width="44" height="44" fill="#b03050"/><rect x="100" y="280" width="44" height="44" fill="#ffe0e4"/><rect x="144" y="280" width="44" height="44" fill="#b03050"/><rect x="188" y="280" width="44" height="44" fill="#ffe0e4"/><rect x="232" y="280" width="44" height="44" fill="#b03050"/><rect x="276" y="280" width="44" height="44" fill="#ffe0e4"/><rect x="320" y="280" width="44" height="44" fill="#b03050"/><rect x="364" y="280" width="44" height="44" fill="#ffe0e4"/><rect x="408" y="280" width="44" height="44" fill="#b03050"/><rect x="452" y="280" width="44" height="44" fill="#ffe0e4"/><rect x="496" y="280" width="44" height="44" fill="#b03050"/><rect x="540" y="280" width="44" height="44" fill="#ffe0e4"/>
  <!-- Row 6  --><rect x="56"  y="324" width="44" height="44" fill="#ffe0e4"/><rect x="100" y="324" width="44" height="44" fill="#b03050"/><rect x="144" y="324" width="44" height="44" fill="#ffe0e4"/><rect x="188" y="324" width="44" height="44" fill="#b03050"/><rect x="232" y="324" width="44" height="44" fill="#ffe0e4"/><rect x="276" y="324" width="44" height="44" fill="#b03050"/><rect x="320" y="324" width="44" height="44" fill="#ffe0e4"/><rect x="364" y="324" width="44" height="44" fill="#b03050"/><rect x="408" y="324" width="44" height="44" fill="#ffe0e4"/><rect x="452" y="324" width="44" height="44" fill="#b03050"/><rect x="496" y="324" width="44" height="44" fill="#ffe0e4"/><rect x="540" y="324" width="44" height="44" fill="#b03050"/>
  <!-- Row 7  --><rect x="56"  y="368" width="44" height="44" fill="#b03050"/><rect x="100" y="368" width="44" height="44" fill="#ffe0e4"/><rect x="144" y="368" width="44" height="44" fill="#b03050"/><rect x="188" y="368" width="44" height="44" fill="#ffe0e4"/><rect x="232" y="368" width="44" height="44" fill="#b03050"/><rect x="276" y="368" width="44" height="44" fill="#ffe0e4"/><rect x="320" y="368" width="44" height="44" fill="#b03050"/><rect x="364" y="368" width="44" height="44" fill="#ffe0e4"/><rect x="408" y="368" width="44" height="44" fill="#b03050"/><rect x="452" y="368" width="44" height="44" fill="#ffe0e4"/><rect x="496" y="368" width="44" height="44" fill="#b03050"/><rect x="540" y="368" width="44" height="44" fill="#ffe0e4"/>
  <!-- Row 8  --><rect x="56"  y="412" width="44" height="44" fill="#ffe0e4"/><rect x="100" y="412" width="44" height="44" fill="#b03050"/><rect x="144" y="412" width="44" height="44" fill="#ffe0e4"/><rect x="188" y="412" width="44" height="44" fill="#b03050"/><rect x="232" y="412" width="44" height="44" fill="#ffe0e4"/><rect x="276" y="412" width="44" height="44" fill="#b03050"/><rect x="320" y="412" width="44" height="44" fill="#ffe0e4"/><rect x="364" y="412" width="44" height="44" fill="#b03050"/><rect x="408" y="412" width="44" height="44" fill="#ffe0e4"/><rect x="452" y="412" width="44" height="44" fill="#b03050"/><rect x="496" y="412" width="44" height="44" fill="#ffe0e4"/><rect x="540" y="412" width="44" height="44" fill="#b03050"/>
  <!-- Row 9  --><rect x="56"  y="456" width="44" height="44" fill="#b03050"/><rect x="100" y="456" width="44" height="44" fill="#ffe0e4"/><rect x="144" y="456" width="44" height="44" fill="#b03050"/><rect x="188" y="456" width="44" height="44" fill="#ffe0e4"/><rect x="232" y="456" width="44" height="44" fill="#b03050"/><rect x="276" y="456" width="44" height="44" fill="#ffe0e4"/><rect x="320" y="456" width="44" height="44" fill="#b03050"/><rect x="364" y="456" width="44" height="44" fill="#ffe0e4"/><rect x="408" y="456" width="44" height="44" fill="#b03050"/><rect x="452" y="456" width="44" height="44" fill="#ffe0e4"/><rect x="496" y="456" width="44" height="44" fill="#b03050"/><rect x="540" y="456" width="44" height="44" fill="#ffe0e4"/>
  <!-- Row 10 --><rect x="56"  y="500" width="44" height="44" fill="#ffe0e4"/><rect x="100" y="500" width="44" height="44" fill="#b03050"/><rect x="144" y="500" width="44" height="44" fill="#ffe0e4"/><rect x="188" y="500" width="44" height="44" fill="#b03050"/><rect x="232" y="500" width="44" height="44" fill="#ffe0e4"/><rect x="276" y="500" width="44" height="44" fill="#b03050"/><rect x="320" y="500" width="44" height="44" fill="#ffe0e4"/><rect x="364" y="500" width="44" height="44" fill="#b03050"/><rect x="408" y="500" width="44" height="44" fill="#ffe0e4"/><rect x="452" y="500" width="44" height="44" fill="#b03050"/><rect x="496" y="500" width="44" height="44" fill="#ffe0e4"/><rect x="540" y="500" width="44" height="44" fill="#b03050"/>
  <!-- Row 11 --><rect x="56"  y="544" width="44" height="44" fill="#b03050"/><rect x="100" y="544" width="44" height="44" fill="#ffe0e4"/><rect x="144" y="544" width="44" height="44" fill="#b03050"/><rect x="188" y="544" width="44" height="44" fill="#ffe0e4"/><rect x="232" y="544" width="44" height="44" fill="#b03050"/><rect x="276" y="544" width="44" height="44" fill="#ffe0e4"/><rect x="320" y="544" width="44" height="44" fill="#b03050"/><rect x="364" y="544" width="44" height="44" fill="#ffe0e4"/><rect x="408" y="544" width="44" height="44" fill="#b03050"/><rect x="452" y="544" width="44" height="44" fill="#ffe0e4"/><rect x="496" y="544" width="44" height="44" fill="#b03050"/><rect x="540" y="544" width="44" height="44" fill="#ffe0e4"/>

  <!-- Queens: board=[0,2,4,7,9,11,5,10,1,6,8,3] — ruby red glow
       cx = 56 + col*44 + 22,  qy = 60 + row*44 + 33 -->
  <text x="78"  y="93"  text-anchor="middle" font-size="32" font-family="serif" fill="#ffcccc" filter="url(#qs)">♛</text>
  <text x="166" y="137" text-anchor="middle" font-size="32" font-family="serif" fill="#ffcccc" filter="url(#qs)">♛</text>
  <text x="254" y="181" text-anchor="middle" font-size="32" font-family="serif" fill="#ffcccc" filter="url(#qs)">♛</text>
  <text x="386" y="225" text-anchor="middle" font-size="32" font-family="serif" fill="#ffcccc" filter="url(#qs)">♛</text>
  <text x="474" y="269" text-anchor="middle" font-size="32" font-family="serif" fill="#ffcccc" filter="url(#qs)">♛</text>
  <text x="562" y="313" text-anchor="middle" font-size="32" font-family="serif" fill="#ffcccc" filter="url(#qs)">♛</text>
  <text x="298" y="357" text-anchor="middle" font-size="32" font-family="serif" fill="#ffcccc" filter="url(#qs)">♛</text>
  <text x="518" y="401" text-anchor="middle" font-size="32" font-family="serif" fill="#ffcccc" filter="url(#qs)">♛</text>
  <text x="122" y="445" text-anchor="middle" font-size="32" font-family="serif" fill="#ffcccc" filter="url(#qs)">♛</text>
  <text x="342" y="489" text-anchor="middle" font-size="32" font-family="serif" fill="#ffcccc" filter="url(#qs)">♛</text>
  <text x="430" y="533" text-anchor="middle" font-size="32" font-family="serif" fill="#ffcccc" filter="url(#qs)">♛</text>
  <text x="210" y="577" text-anchor="middle" font-size="32" font-family="serif" fill="#ffcccc" filter="url(#qs)">♛</text>

  <!-- Footer -->
  <text x="320" y="610" text-anchor="middle" font-family="'Segoe UI',Arial" font-size="11"
        fill="#ff6680">✓ 14,200 distinct solutions  ·  No two queens attack each other</text>
  <text x="320" y="626" text-anchor="middle" font-family="'Segoe UI',Arial" font-size="10"
        fill="#aa3344">Aksum University, AIT  ·  Design and Analysis of Algorithms</text>
  <text x="320" y="642" text-anchor="middle" font-family="'Segoe UI',Arial" font-size="10"
        fill="#7a1828">Eyerusalem Teklay · Shewit Legese · Weldearegay Gebrey</text>
</svg>
