<svg xmlns="http://www.w3.org/2000/svg" width="500" height="460" viewBox="0 0 500 460">
  <rect width="500" height="460" fill="#1a1a2e"/>
  <text x="250" y="28" text-anchor="middle" font-family="Segoe UI,Arial" font-size="14" font-weight="bold" fill="#58A6FF">N-Queens Solver — N=8, Solution #1</text>
  <text x="250" y="46" text-anchor="middle" font-family="Segoe UI,Arial" font-size="10" fill="#8B949E">board=[0,4,7,5,2,6,1,3] · No two queens attack each other</text>
  <rect x="54" y="54" width="354" height="354" fill="none" stroke="#58A6FF" stroke-width="2"/>

  <!-- Board cells: 8x8, cell=44px, origin (56,56) -->
  <!-- Light=#F0D9B5, Dark=#B58863. Color=(row+col)%2==0 ? light : dark -->
  <rect x="56" y="56" width="44" height="44" fill="#F0D9B5"/>
  <rect x="100" y="56" width="44" height="44" fill="#B58863"/>
  <rect x="144" y="56" width="44" height="44" fill="#F0D9B5"/>
  <rect x="188" y="56" width="44" height="44" fill="#B58863"/>
  <rect x="232" y="56" width="44" height="44" fill="#F0D9B5"/>
  <rect x="276" y="56" width="44" height="44" fill="#B58863"/>
  <rect x="320" y="56" width="44" height="44" fill="#F0D9B5"/>
  <rect x="364" y="56" width="44" height="44" fill="#B58863"/>

  <rect x="56" y="100" width="44" height="44" fill="#B58863"/>
  <rect x="100" y="100" width="44" height="44" fill="#F0D9B5"/>
  <rect x="144" y="100" width="44" height="44" fill="#B58863"/>
  <rect x="188" y="100" width="44" height="44" fill="#F0D9B5"/>
  <rect x="232" y="100" width="44" height="44" fill="#B58863"/>
  <rect x="276" y="100" width="44" height="44" fill="#F0D9B5"/>
  <rect x="320" y="100" width="44" height="44" fill="#B58863"/>
  <rect x="364" y="100" width="44" height="44" fill="#F0D9B5"/>

  <rect x="56" y="144" width="44" height="44" fill="#F0D9B5"/>
  <rect x="100" y="144" width="44" height="44" fill="#B58863"/>
  <rect x="144" y="144" width="44" height="44" fill="#F0D9B5"/>
  <rect x="188" y="144" width="44" height="44" fill="#B58863"/>
  <rect x="232" y="144" width="44" height="44" fill="#F0D9B5"/>
  <rect x="276" y="144" width="44" height="44" fill="#B58863"/>
  <rect x="320" y="144" width="44" height="44" fill="#F0D9B5"/>
  <rect x="364" y="144" width="44" height="44" fill="#B58863"/>

  <rect x="56" y="188" width="44" height="44" fill="#B58863"/>
  <rect x="100" y="188" width="44" height="44" fill="#F0D9B5"/>
  <rect x="144" y="188" width="44" height="44" fill="#B58863"/>
  <rect x="188" y="188" width="44" height="44" fill="#F0D9B5"/>
  <rect x="232" y="188" width="44" height="44" fill="#B58863"/>
  <rect x="276" y="188" width="44" height="44" fill="#F0D9B5"/>
  <rect x="320" y="188" width="44" height="44" fill="#B58863"/>
  <rect x="364" y="188" width="44" height="44" fill="#F0D9B5"/>

  <rect x="56" y="232" width="44" height="44" fill="#F0D9B5"/>
  <rect x="100" y="232" width="44" height="44" fill="#B58863"/>
  <rect x="144" y="232" width="44" height="44" fill="#F0D9B5"/>
  <rect x="188" y="232" width="44" height="44" fill="#B58863"/>
  <rect x="232" y="232" width="44" height="44" fill="#F0D9B5"/>
  <rect x="276" y="232" width="44" height="44" fill="#B58863"/>
  <rect x="320" y="232" width="44" height="44" fill="#F0D9B5"/>
  <rect x="364" y="232" width="44" height="44" fill="#B58863"/>

  <rect x="56" y="276" width="44" height="44" fill="#B58863"/>
  <rect x="100" y="276" width="44" height="44" fill="#F0D9B5"/>
  <rect x="144" y="276" width="44" height="44" fill="#B58863"/>
  <rect x="188" y="276" width="44" height="44" fill="#F0D9B5"/>
  <rect x="232" y="276" width="44" height="44" fill="#B58863"/>
  <rect x="276" y="276" width="44" height="44" fill="#F0D9B5"/>
  <rect x="320" y="276" width="44" height="44" fill="#B58863"/>
  <rect x="364" y="276" width="44" height="44" fill="#F0D9B5"/>

  <rect x="56" y="320" width="44" height="44" fill="#F0D9B5"/>
  <rect x="100" y="320" width="44" height="44" fill="#B58863"/>
  <rect x="144" y="320" width="44" height="44" fill="#F0D9B5"/>
  <rect x="188" y="320" width="44" height="44" fill="#B58863"/>
  <rect x="232" y="320" width="44" height="44" fill="#F0D9B5"/>
  <rect x="276" y="320" width="44" height="44" fill="#B58863"/>
  <rect x="320" y="320" width="44" height="44" fill="#F0D9B5"/>
  <rect x="364" y="320" width="44" height="44" fill="#B58863"/>

  <rect x="56" y="364" width="44" height="44" fill="#B58863"/>
  <rect x="100" y="364" width="44" height="44" fill="#F0D9B5"/>
  <rect x="144" y="364" width="44" height="44" fill="#B58863"/>
  <rect x="188" y="364" width="44" height="44" fill="#F0D9B5"/>
  <rect x="232" y="364" width="44" height="44" fill="#B58863"/>
  <rect x="276" y="364" width="44" height="44" fill="#F0D9B5"/>
  <rect x="320" y="364" width="44" height="44" fill="#B58863"/>
  <rect x="364" y="364" width="44" height="44" fill="#F0D9B5"/>

  <!-- Queens: board=[0,4,7,5,2,6,1,3] -->
  <!-- Queen center x = 56 + col*44 + 22, y = 56 + row*44 + 28 -->
  <!-- Row0,Col0: x=78, y=84 -->
  <text x="78" y="90" text-anchor="middle" font-size="30" fill="#FFD700">♛</text>
  <!-- Row1,Col4: x=78+4*44=254, y=84+44=128 -->
  <text x="254" y="134" text-anchor="middle" font-size="30" fill="#FFD700">♛</text>
  <!-- Row2,Col7: x=78+7*44=386, y=84+88=172 -->
  <text x="386" y="178" text-anchor="middle" font-size="30" fill="#FFD700">♛</text>
  <!-- Row3,Col5: x=78+5*44=298, y=84+132=216 -->
  <text x="298" y="222" text-anchor="middle" font-size="30" fill="#FFD700">♛</text>
  <!-- Row4,Col2: x=78+2*44=166, y=84+176=260 -->
  <text x="166" y="266" text-anchor="middle" font-size="30" fill="#FFD700">♛</text>
  <!-- Row5,Col6: x=78+6*44=342, y=84+220=304 -->
  <text x="342" y="310" text-anchor="middle" font-size="30" fill="#FFD700">♛</text>
  <!-- Row6,Col1: x=78+1*44=122, y=84+264=348 -->
  <text x="122" y="354" text-anchor="middle" font-size="30" fill="#FFD700">♛</text>
  <!-- Row7,Col3: x=78+3*44=210, y=84+308=392 -->
  <text x="210" y="398" text-anchor="middle" font-size="30" fill="#FFD700">♛</text>

  <!-- Column labels -->
  <text x="78" y="420" text-anchor="middle" font-family="Segoe UI,Arial" font-size="10" fill="#8B949E">0</text>
  <text x="122" y="420" text-anchor="middle" font-family="Segoe UI,Arial" font-size="10" fill="#8B949E">1</text>
  <text x="166" y="420" text-anchor="middle" font-family="Segoe UI,Arial" font-size="10" fill="#8B949E">2</text>
  <text x="210" y="420" text-anchor="middle" font-family="Segoe UI,Arial" font-size="10" fill="#8B949E">3</text>
  <text x="254" y="420" text-anchor="middle" font-family="Segoe UI,Arial" font-size="10" fill="#8B949E">4</text>
  <text x="298" y="420" text-anchor="middle" font-family="Segoe UI,Arial" font-size="10" fill="#8B949E">5</text>
  <text x="342" y="420" text-anchor="middle" font-family="Segoe UI,Arial" font-size="10" fill="#8B949E">6</text>
  <text x="386" y="420" text-anchor="middle" font-family="Segoe UI,Arial" font-size="10" fill="#8B949E">7</text>

  <!-- Row labels -->
  <text x="40" y="84" text-anchor="middle" font-family="Segoe UI,Arial" font-size="10" fill="#8B949E">0</text>
  <text x="40" y="128" text-anchor="middle" font-family="Segoe UI,Arial" font-size="10" fill="#8B949E">1</text>
  <text x="40" y="172" text-anchor="middle" font-family="Segoe UI,Arial" font-size="10" fill="#8B949E">2</text>
  <text x="40" y="216" text-anchor="middle" font-family="Segoe UI,Arial" font-size="10" fill="#8B949E">3</text>
  <text x="40" y="260" text-anchor="middle" font-family="Segoe UI,Arial" font-size="10" fill="#8B949E">4</text>
  <text x="40" y="304" text-anchor="middle" font-family="Segoe UI,Arial" font-size="10" fill="#8B949E">5</text>
  <text x="40" y="348" text-anchor="middle" font-family="Segoe UI,Arial" font-size="10" fill="#8B949E">6</text>
  <text x="40" y="392" text-anchor="middle" font-family="Segoe UI,Arial" font-size="10" fill="#8B949E">7</text>
</svg>
