<svg xmlns="http://www.w3.org/2000/svg" width="540" height="600" viewBox="0 0 540 600">
  <defs>
    <filter id="shadow" x="-20%" y="-20%" width="140%" height="140%">
      <feDropShadow dx="1" dy="2" stdDeviation="2" flood-color="#000" flood-opacity="0.5"/>
    </filter>
    <filter id="glow">
      <feGaussianBlur stdDeviation="3" result="blur"/>
      <feMerge><feMergeNode in="blur"/><feMergeNode in="SourceGraphic"/></feMerge>
    </filter>
    <linearGradient id="bgGrad" x1="0" y1="0" x2="0" y2="1">
      <stop offset="0%" stop-color="#1e2a3a"/>
      <stop offset="100%" stop-color="#0d1117"/>
    </linearGradient>
    <linearGradient id="frameGrad" x1="0" y1="0" x2="1" y2="1">
      <stop offset="0%" stop-color="#c8a96e"/>
      <stop offset="50%" stop-color="#8B6914"/>
      <stop offset="100%" stop-color="#6b4f10"/>
    </linearGradient>
  </defs>

  <!-- Background -->
  <rect width="540" height="600" rx="14" fill="url(#bgGrad)"/>
  <!-- Subtle border -->
  <rect width="540" height="600" rx="14" fill="none" stroke="#30363d" stroke-width="1.5"/>

  <!-- Header area -->
  <rect x="0" y="0" width="540" height="58" rx="14" fill="#161b22"/>
  <rect x="0" y="44" width="540" height="14" fill="#161b22"/>
  <!-- Traffic lights -->
  <circle cx="22" cy="26" r="7" fill="#ff5f57"/>
  <circle cx="44" cy="26" r="7" fill="#febc2e"/>
  <circle cx="66" cy="26" r="7" fill="#28c840"/>
  <!-- Title -->
  <text x="270" y="22" text-anchor="middle" font-family="'Segoe UI',Arial,sans-serif"
        font-size="14" font-weight="bold" fill="#58A6FF">N-Queens Problem Solver</text>
  <text x="270" y="40" text-anchor="middle" font-family="'Segoe UI',Arial,sans-serif"
        font-size="11" fill="#8b949e">N = 8  ·  Solution #1  ·  board = [0, 4, 7, 5, 2, 6, 1, 3]</text>

  <!-- Board wood frame with gradient -->
  <rect x="46" y="68" width="432" height="432" rx="5" fill="url(#frameGrad)" filter="url(#shadow)"/>

  <!-- Board cells: 8×8, cell=52px, top-left=(50,72) -->
  <!-- Row 0 -->
  <rect x="50"  y="72"  width="52" height="52" fill="#EEEED2"/>
  <rect x="102" y="72"  width="52" height="52" fill="#769656"/>
  <rect x="154" y="72"  width="52" height="52" fill="#EEEED2"/>
  <rect x="206" y="72"  width="52" height="52" fill="#769656"/>
  <rect x="258" y="72"  width="52" height="52" fill="#EEEED2"/>
  <rect x="310" y="72"  width="52" height="52" fill="#769656"/>
  <rect x="362" y="72"  width="52" height="52" fill="#EEEED2"/>
  <rect x="414" y="72"  width="52" height="52" fill="#769656"/>
  <!-- Row 1 -->
  <rect x="50"  y="124" width="52" height="52" fill="#769656"/>
  <rect x="102" y="124" width="52" height="52" fill="#EEEED2"/>
  <rect x="154" y="124" width="52" height="52" fill="#769656"/>
  <rect x="206" y="124" width="52" height="52" fill="#EEEED2"/>
  <rect x="258" y="124" width="52" height="52" fill="#769656"/>
  <rect x="310" y="124" width="52" height="52" fill="#EEEED2"/>
  <rect x="362" y="124" width="52" height="52" fill="#769656"/>
  <rect x="414" y="124" width="52" height="52" fill="#EEEED2"/>
  <!-- Row 2 -->
  <rect x="50"  y="176" width="52" height="52" fill="#EEEED2"/>
  <rect x="102" y="176" width="52" height="52" fill="#769656"/>
  <rect x="154" y="176" width="52" height="52" fill="#EEEED2"/>
  <rect x="206" y="176" width="52" height="52" fill="#769656"/>
  <rect x="258" y="176" width="52" height="52" fill="#EEEED2"/>
  <rect x="310" y="176" width="52" height="52" fill="#769656"/>
  <rect x="362" y="176" width="52" height="52" fill="#EEEED2"/>
  <rect x="414" y="176" width="52" height="52" fill="#769656"/>
  <!-- Row 3 -->
  <rect x="50"  y="228" width="52" height="52" fill="#769656"/>
  <rect x="102" y="228" width="52" height="52" fill="#EEEED2"/>
  <rect x="154" y="228" width="52" height="52" fill="#769656"/>
  <rect x="206" y="228" width="52" height="52" fill="#EEEED2"/>
  <rect x="258" y="228" width="52" height="52" fill="#769656"/>
  <rect x="310" y="228" width="52" height="52" fill="#EEEED2"/>
  <rect x="362" y="228" width="52" height="52" fill="#769656"/>
  <rect x="414" y="228" width="52" height="52" fill="#EEEED2"/>
  <!-- Row 4 -->
  <rect x="50"  y="280" width="52" height="52" fill="#EEEED2"/>
  <rect x="102" y="280" width="52" height="52" fill="#769656"/>
  <rect x="154" y="280" width="52" height="52" fill="#EEEED2"/>
  <rect x="206" y="280" width="52" height="52" fill="#769656"/>
  <rect x="258" y="280" width="52" height="52" fill="#EEEED2"/>
  <rect x="310" y="280" width="52" height="52" fill="#769656"/>
  <rect x="362" y="280" width="52" height="52" fill="#EEEED2"/>
  <rect x="414" y="280" width="52" height="52" fill="#769656"/>
  <!-- Row 5 -->
  <rect x="50"  y="332" width="52" height="52" fill="#769656"/>
  <rect x="102" y="332" width="52" height="52" fill="#EEEED2"/>
  <rect x="154" y="332" width="52" height="52" fill="#769656"/>
  <rect x="206" y="332" width="52" height="52" fill="#EEEED2"/>
  <rect x="258" y="332" width="52" height="52" fill="#769656"/>
  <rect x="310" y="332" width="52" height="52" fill="#EEEED2"/>
  <rect x="362" y="332" width="52" height="52" fill="#769656"/>
  <rect x="414" y="332" width="52" height="52" fill="#EEEED2"/>
  <!-- Row 6 -->
  <rect x="50"  y="384" width="52" height="52" fill="#EEEED2"/>
  <rect x="102" y="384" width="52" height="52" fill="#769656"/>
  <rect x="154" y="384" width="52" height="52" fill="#EEEED2"/>
  <rect x="206" y="384" width="52" height="52" fill="#769656"/>
  <rect x="258" y="384" width="52" height="52" fill="#EEEED2"/>
  <rect x="310" y="384" width="52" height="52" fill="#769656"/>
  <rect x="362" y="384" width="52" height="52" fill="#EEEED2"/>
  <rect x="414" y="384" width="52" height="52" fill="#769656"/>
  <!-- Row 7 -->
  <rect x="50"  y="436" width="52" height="52" fill="#769656"/>
  <rect x="102" y="436" width="52" height="52" fill="#EEEED2"/>
  <rect x="154" y="436" width="52" height="52" fill="#769656"/>
  <rect x="206" y="436" width="52" height="52" fill="#EEEED2"/>
  <rect x="258" y="436" width="52" height="52" fill="#769656"/>
  <rect x="310" y="436" width="52" height="52" fill="#EEEED2"/>
  <rect x="362" y="436" width="52" height="52" fill="#769656"/>
  <rect x="414" y="436" width="52" height="52" fill="#EEEED2"/>

  <!-- Queens: board=[0,4,7,5,2,6,1,3]
       cell center x = 50 + col*52 + 26
       cell center y = 72 + row*52 + 26
       queen text baseline ≈ center_y + 13  -->
  <!-- Row0,Col0: cx=76,  cy=98  → y=111 -->
  <text x="76"  y="111" text-anchor="middle" font-size="38" fill="#FFD700" filter="url(#shadow)" font-family="serif">♛</text>
  <!-- Row1,Col4: cx=284, cy=150 → y=163 -->
  <text x="284" y="163" text-anchor="middle" font-size="38" fill="#FFD700" filter="url(#shadow)" font-family="serif">♛</text>
  <!-- Row2,Col7: cx=440, cy=202 → y=215 -->
  <text x="440" y="215" text-anchor="middle" font-size="38" fill="#FFD700" filter="url(#shadow)" font-family="serif">♛</text>
  <!-- Row3,Col5: cx=336, cy=254 → y=267 -->
  <text x="336" y="267" text-anchor="middle" font-size="38" fill="#FFD700" filter="url(#shadow)" font-family="serif">♛</text>
  <!-- Row4,Col2: cx=180, cy=306 → y=319 -->
  <text x="180" y="319" text-anchor="middle" font-size="38" fill="#FFD700" filter="url(#shadow)" font-family="serif">♛</text>
  <!-- Row5,Col6: cx=388, cy=358 → y=371 -->
  <text x="388" y="371" text-anchor="middle" font-size="38" fill="#FFD700" filter="url(#shadow)" font-family="serif">♛</text>
  <!-- Row6,Col1: cx=128, cy=410 → y=423 -->
  <text x="128" y="423" text-anchor="middle" font-size="38" fill="#FFD700" filter="url(#shadow)" font-family="serif">♛</text>
  <!-- Row7,Col3: cx=232, cy=462 → y=475 -->
  <text x="232" y="475" text-anchor="middle" font-size="38" fill="#FFD700" filter="url(#shadow)" font-family="serif">♛</text>

  <!-- File labels a–h (bottom of board) -->
  <text x="76"  y="514" text-anchor="middle" font-family="'Segoe UI',Arial" font-size="13" font-weight="bold" fill="#c9a84c">a</text>
  <text x="128" y="514" text-anchor="middle" font-family="'Segoe UI',Arial" font-size="13" font-weight="bold" fill="#c9a84c">b</text>
  <text x="180" y="514" text-anchor="middle" font-family="'Segoe UI',Arial" font-size="13" font-weight="bold" fill="#c9a84c">c</text>
  <text x="232" y="514" text-anchor="middle" font-family="'Segoe UI',Arial" font-size="13" font-weight="bold" fill="#c9a84c">d</text>
  <text x="284" y="514" text-anchor="middle" font-family="'Segoe UI',Arial" font-size="13" font-weight="bold" fill="#c9a84c">e</text>
  <text x="336" y="514" text-anchor="middle" font-family="'Segoe UI',Arial" font-size="13" font-weight="bold" fill="#c9a84c">f</text>
  <text x="388" y="514" text-anchor="middle" font-family="'Segoe UI',Arial" font-size="13" font-weight="bold" fill="#c9a84c">g</text>
  <text x="440" y="514" text-anchor="middle" font-family="'Segoe UI',Arial" font-size="13" font-weight="bold" fill="#c9a84c">h</text>

  <!-- Rank labels 8–1 (left of board) -->
  <text x="32" y="103" text-anchor="middle" font-family="'Segoe UI',Arial" font-size="13" font-weight="bold" fill="#c9a84c">8</text>
  <text x="32" y="155" text-anchor="middle" font-family="'Segoe UI',Arial" font-size="13" font-weight="bold" fill="#c9a84c">7</text>
  <text x="32" y="207" text-anchor="middle" font-family="'Segoe UI',Arial" font-size="13" font-weight="bold" fill="#c9a84c">6</text>
  <text x="32" y="259" text-anchor="middle" font-family="'Segoe UI',Arial" font-size="13" font-weight="bold" fill="#c9a84c">5</text>
  <text x="32" y="311" text-anchor="middle" font-family="'Segoe UI',Arial" font-size="13" font-weight="bold" fill="#c9a84c">4</text>
  <text x="32" y="363" text-anchor="middle" font-family="'Segoe UI',Arial" font-size="13" font-weight="bold" fill="#c9a84c">3</text>
  <text x="32" y="415" text-anchor="middle" font-family="'Segoe UI',Arial" font-size="13" font-weight="bold" fill="#c9a84c">2</text>
  <text x="32" y="467" text-anchor="middle" font-family="'Segoe UI',Arial" font-size="13" font-weight="bold" fill="#c9a84c">1</text>

  <!-- Divider -->
  <line x1="50" y1="530" x2="490" y2="530" stroke="#30363d" stroke-width="1"/>

  <!-- Footer stats -->
  <text x="270" y="550" text-anchor="middle" font-family="'Segoe UI',Arial" font-size="11" fill="#58A6FF">
    ✓ 92 distinct solutions found  ·  No two queens attack each other
  </text>
  <text x="270" y="568" text-anchor="middle" font-family="'Segoe UI',Arial" font-size="10" fill="#8b949e">
    Aksum University, AIT  ·  Design and Analysis of Algorithms
  </text>
  <text x="270" y="584" text-anchor="middle" font-family="'Segoe UI',Arial" font-size="10" fill="#8b949e">
    Weldearegay Gebrey · Eyerusalem Teklay · Shewit Legese
  </text>
</svg>
