<svg xmlns="http://www.w3.org/2000/svg" width="520" height="520" viewBox="0 0 520 520">
  <defs>
    <filter id="qs">
      <feDropShadow dx="1" dy="2" stdDeviation="2.5" flood-color="#000" flood-opacity="0.6"/>
    </filter>
    <linearGradient id="bg" x1="0" y1="0" x2="0" y2="1">
      <stop offset="0%" stop-color="#1e2a3a"/>
      <stop offset="100%" stop-color="#0d1117"/>
    </linearGradient>
    <linearGradient id="frame" x1="0" y1="0" x2="1" y2="1">
      <stop offset="0%" stop-color="#c8a96e"/>
      <stop offset="50%" stop-color="#8B6914"/>
      <stop offset="100%" stop-color="#6b4f10"/>
    </linearGradient>
  </defs>

  <!-- Background -->
  <rect width="520" height="520" rx="14" fill="url(#bg)"/>
  <rect width="520" height="520" rx="14" fill="none" stroke="#30363d" stroke-width="1.5"/>

  <!-- Header -->
  <rect x="0" y="0" width="520" height="52" rx="14" fill="#161b22"/>
  <rect x="0" y="38" width="520" height="14" fill="#161b22"/>
  <circle cx="22" cy="26" r="7" fill="#ff5f57"/>
  <circle cx="44" cy="26" r="7" fill="#febc2e"/>
  <circle cx="66" cy="26" r="7" fill="#28c840"/>
  <text x="260" y="22" text-anchor="middle" font-family="'Segoe UI',Arial" font-size="14"
        font-weight="bold" fill="#58A6FF">N-Queens Solver — N=8, Solution #1</text>
  <text x="260" y="40" text-anchor="middle" font-family="'Segoe UI',Arial" font-size="10"
        fill="#8b949e">board=[0,4,7,5,2,6,1,3] · No two queens attack each other</text>

  <!-- Wood frame -->
  <rect x="50" y="60" width="420" height="420" rx="5" fill="url(#frame)"/>

  <!-- Board cells: 8×8, cell=51px, origin (54,64) -->
  <!-- Row 0 --><rect x="54"  y="64"  width="51" height="51" fill="#EEEED2"/><rect x="105" y="64"  width="51" height="51" fill="#769656"/><rect x="156" y="64"  width="51" height="51" fill="#EEEED2"/><rect x="207" y="64"  width="51" height="51" fill="#769656"/><rect x="258" y="64"  width="51" height="51" fill="#EEEED2"/><rect x="309" y="64"  width="51" height="51" fill="#769656"/><rect x="360" y="64"  width="51" height="51" fill="#EEEED2"/><rect x="411" y="64"  width="51" height="51" fill="#769656"/>
  <!-- Row 1 --><rect x="54"  y="115" width="51" height="51" fill="#769656"/><rect x="105" y="115" width="51" height="51" fill="#EEEED2"/><rect x="156" y="115" width="51" height="51" fill="#769656"/><rect x="207" y="115" width="51" height="51" fill="#EEEED2"/><rect x="258" y="115" width="51" height="51" fill="#769656"/><rect x="309" y="115" width="51" height="51" fill="#EEEED2"/><rect x="360" y="115" width="51" height="51" fill="#769656"/><rect x="411" y="115" width="51" height="51" fill="#EEEED2"/>
  <!-- Row 2 --><rect x="54"  y="166" width="51" height="51" fill="#EEEED2"/><rect x="105" y="166" width="51" height="51" fill="#769656"/><rect x="156" y="166" width="51" height="51" fill="#EEEED2"/><rect x="207" y="166" width="51" height="51" fill="#769656"/><rect x="258" y="166" width="51" height="51" fill="#EEEED2"/><rect x="309" y="166" width="51" height="51" fill="#769656"/><rect x="360" y="166" width="51" height="51" fill="#EEEED2"/><rect x="411" y="166" width="51" height="51" fill="#769656"/>
  <!-- Row 3 --><rect x="54"  y="217" width="51" height="51" fill="#769656"/><rect x="105" y="217" width="51" height="51" fill="#EEEED2"/><rect x="156" y="217" width="51" height="51" fill="#769656"/><rect x="207" y="217" width="51" height="51" fill="#EEEED2"/><rect x="258" y="217" width="51" height="51" fill="#769656"/><rect x="309" y="217" width="51" height="51" fill="#EEEED2"/><rect x="360" y="217" width="51" height="51" fill="#769656"/><rect x="411" y="217" width="51" height="51" fill="#EEEED2"/>
  <!-- Row 4 --><rect x="54"  y="268" width="51" height="51" fill="#EEEED2"/><rect x="105" y="268" width="51" height="51" fill="#769656"/><rect x="156" y="268" width="51" height="51" fill="#EEEED2"/><rect x="207" y="268" width="51" height="51" fill="#769656"/><rect x="258" y="268" width="51" height="51" fill="#EEEED2"/><rect x="309" y="268" width="51" height="51" fill="#769656"/><rect x="360" y="268" width="51" height="51" fill="#EEEED2"/><rect x="411" y="268" width="51" height="51" fill="#769656"/>
  <!-- Row 5 --><rect x="54"  y="319" width="51" height="51" fill="#769656"/><rect x="105" y="319" width="51" height="51" fill="#EEEED2"/><rect x="156" y="319" width="51" height="51" fill="#769656"/><rect x="207" y="319" width="51" height="51" fill="#EEEED2"/><rect x="258" y="319" width="51" height="51" fill="#769656"/><rect x="309" y="319" width="51" height="51" fill="#EEEED2"/><rect x="360" y="319" width="51" height="51" fill="#769656"/><rect x="411" y="319" width="51" height="51" fill="#EEEED2"/>
  <!-- Row 6 --><rect x="54"  y="370" width="51" height="51" fill="#EEEED2"/><rect x="105" y="370" width="51" height="51" fill="#769656"/><rect x="156" y="370" width="51" height="51" fill="#EEEED2"/><rect x="207" y="370" width="51" height="51" fill="#769656"/><rect x="258" y="370" width="51" height="51" fill="#EEEED2"/><rect x="309" y="370" width="51" height="51" fill="#769656"/><rect x="360" y="370" width="51" height="51" fill="#EEEED2"/><rect x="411" y="370" width="51" height="51" fill="#769656"/>
  <!-- Row 7 --><rect x="54"  y="421" width="51" height="51" fill="#769656"/><rect x="105" y="421" width="51" height="51" fill="#EEEED2"/><rect x="156" y="421" width="51" height="51" fill="#769656"/><rect x="207" y="421" width="51" height="51" fill="#EEEED2"/><rect x="258" y="421" width="51" height="51" fill="#769656"/><rect x="309" y="421" width="51" height="51" fill="#EEEED2"/><rect x="360" y="421" width="51" height="51" fill="#769656"/><rect x="411" y="421" width="51" height="51" fill="#EEEED2"/>

  <!-- Queens: board=[0,4,7,5,2,6,1,3]
       center x = 54 + col*51 + 25
       queen y  = 64 + row*51 + 38  (baseline for 42px font) -->
  <text x="79"  y="102" text-anchor="middle" font-size="42" font-family="serif" fill="#FFD700" filter="url(#qs)">♛</text>
  <text x="283" y="153" text-anchor="middle" font-size="42" font-family="serif" fill="#FFD700" filter="url(#qs)">♛</text>
  <text x="436" y="204" text-anchor="middle" font-size="42" font-family="serif" fill="#FFD700" filter="url(#qs)">♛</text>
  <text x="334" y="255" text-anchor="middle" font-size="42" font-family="serif" fill="#FFD700" filter="url(#qs)">♛</text>
  <text x="181" y="306" text-anchor="middle" font-size="42" font-family="serif" fill="#FFD700" filter="url(#qs)">♛</text>
  <text x="385" y="357" text-anchor="middle" font-size="42" font-family="serif" fill="#FFD700" filter="url(#qs)">♛</text>
  <text x="130" y="408" text-anchor="middle" font-size="42" font-family="serif" fill="#FFD700" filter="url(#qs)">♛</text>
  <text x="232" y="459" text-anchor="middle" font-size="42" font-family="serif" fill="#FFD700" filter="url(#qs)">♛</text>

  <!-- Footer -->
  <text x="260" y="494" text-anchor="middle" font-family="'Segoe UI',Arial" font-size="11"
        fill="#58A6FF">✓ 92 distinct solutions  ·  No two queens attack each other</text>
  <text x="260" y="510" text-anchor="middle" font-family="'Segoe UI',Arial" font-size="10"
        fill="#8b949e">Aksum University, AIT  ·  Design and Analysis of Algorithms</text>
</svg>
