<svg xmlns="http://www.w3.org/2000/svg" width="520" height="420" viewBox="0 0 520 420">
  <rect width="520" height="420" fill="#0D1117"/>
  <text x="260" y="30" text-anchor="middle" font-family="Segoe UI,Arial" font-size="15" font-weight="bold" fill="#58A6FF">N-Queens Solver — N=8, Solution #1</text>
  <text x="260" y="50" text-anchor="middle" font-family="Segoe UI,Arial" font-size="11" fill="#8B949E">board = [0,4,7,5,2,6,1,3] · No two queens attack each other</text>

  <!-- Board: 8x8, cell size 44px, start x=60, y=65 -->
  <!-- Row 0: Q at col 0 -->
  <!-- Row 1: Q at col 4 -->
  <!-- Row 2: Q at col 7 -->
  <!-- Row 3: Q at col 5 -->
  <!-- Row 4: Q at col 2 -->
  <!-- Row 5: Q at col 6 -->
  <!-- Row 6: Q at col 1 -->
  <!-- Row 7: Q at col 3 -->

  <!-- Draw board cells -->
  <!-- Row 0 -->
  <rect x="60" y="65" width="44" height="44" fill="#F0D9B5"/>
  <rect x="104" y="65" width="44" height="44" fill="#B58863"/>
  <rect x="148" y="65" width="44" height="44" fill="#F0D9B5"/>
  <rect x="192" y="65" width="44" height="44" fill="#B58863"/>
  <rect x="236" y="65" width="44" height="44" fill="#F0D9B5"/>
  <rect x="280" y="65" width="44" height="44" fill="#B58863"/>
  <rect x="324" y="65" width="44" height="44" fill="#F0D9B5"/>
  <rect x="368" y="65" width="44" height="44" fill="#B58863"/>
  <!-- Row 1 -->
  <rect x="60" y="109" width="44" height="44" fill="#B58863"/>
  <rect x="104" y="109" width="44" height="44" fill="#F0D9B5"/>
  <rect x="148" y="109" width="44" height="44" fill="#B58863"/>
  <rect x="192" y="109" width="44" height="44" fill="#F0D9B5"/>
  <rect x="236" y="109" width="44" height="44" fill="#B58863"/>
  <rect x="280" y="109" width="44" height="44" fill="#F0D9B5"/>
  <rect x="324" y="109" width="44" height="44" fill="#B58863"/>
  <rect x="368" y="109" width="44" height="44" fill="#F0D9B5"/>
  <!-- Row 2 -->
  <rect x="60" y="153" width="44" height="44" fill="#F0D9B5"/>
  <rect x="104" y="153" width="44" height="44" fill="#B58863"/>
  <rect x="148" y="153" width="44" height="44" fill="#F0D9B5"/>
  <rect x="192" y="153" width="44" height="44" fill="#B58863"/>
  <rect x="236" y="153" width="44" height="44" fill="#F0D9B5"/>
  <rect x="280" y="153" width="44" height="44" fill="#B58863"/>
  <rect x="324" y="153" width="44" height="44" fill="#F0D9B5"/>
  <rect x="368" y="153" width="44" height="44" fill="#B58863"/>
  <!-- Row 3 -->
  <rect x="60" y="197" width="44" height="44" fill="#B58863"/>
  <rect x="104" y="197" width="44" height="44" fill="#F0D9B5"/>
  <rect x="148" y="197" width="44" height="44" fill="#B58863"/>
  <rect x="192" y="197" width="44" height="44" fill="#F0D9B5"/>
  <rect x="236" y="197" width="44" height="44" fill="#B58863"/>
  <rect x="280" y="197" width="44" height="44" fill="#F0D9B5"/>
  <rect x="324" y="197" width="44" height="44" fill="#B58863"/>
  <rect x="368" y="197" width="44" height="44" fill="#F0D9B5"/>
  <!-- Row 4 -->
  <rect x="60" y="241" width="44" height="44" fill="#F0D9B5"/>
  <rect x="104" y="241" width="44" height="44" fill="#B58863"/>
  <rect x="148" y="241" width="44" height="44" fill="#F0D9B5"/>
  <rect x="192" y="241" width="44" height="44" fill="#B58863"/>
  <rect x="236" y="241" width="44" height="44" fill="#F0D9B5"/>
  <rect x="280" y="241" width="44" height="44" fill="#B58863"/>
  <rect x="324" y="241" width="44" height="44" fill="#F0D9B5"/>
  <rect x="368" y="241" width="44" height="44" fill="#B58863"/>
  <!-- Row 5 -->
  <rect x="60" y="285" width="44" height="44" fill="#B58863"/>
  <rect x="104" y="285" width="44" height="44" fill="#F0D9B5"/>
  <rect x="148" y="285" width="44" height="44" fill="#B58863"/>
  <rect x="192" y="285" width="44" height="44" fill="#F0D9B5"/>
  <rect x="236" y="285" width="44" height="44" fill="#B58863"/>
  <rect x="280" y="285" width="44" height="44" fill="#F0D9B5"/>
  <rect x="324" y="285" width="44" height="44" fill="#B58863"/>
  <rect x="368" y="285" width="44" height="44" fill="#F0D9B5"/>
  <!-- Row 6 -->
  <rect x="60" y="329" width="44" height="44" fill="#F0D9B5"/>
  <rect x="104" y="329" width="44" height="44" fill="#B58863"/>
  <rect x="148" y="329" width="44" height="44" fill="#F0D9B5"/>
  <rect x="192" y="329" width="44" height="44" fill="#B58863"/>
  <rect x="236" y="329" width="44" height="44" fill="#F0D9B5"/>
  <rect x="280" y="329" width="44" height="44" fill="#B58863"/>
  <rect x="324" y="329" width="44" height="44" fill="#F0D9B5"/>
  <rect x="368" y="329" width="44" height="44" fill="#B58863"/>
  <!-- Row 7 -->
  <rect x="60" y="373" width="44" height="44" fill="#B58863"/>
  <rect x="104" y="373" width="44" height="44" fill="#F0D9B5"/>
  <rect x="148" y="373" width="44" height="44" fill="#B58863"/>
  <rect x="192" y="373" width="44" height="44" fill="#F0D9B5"/>
  <rect x="236" y="373" width="44" height="44" fill="#B58863"/>
  <rect x="280" y="373" width="44" height="44" fill="#F0D9B5"/>
  <rect x="324" y="373" width="44" height="44" fill="#B58863"/>
  <rect x="368" y="373" width="44" height="44" fill="#F0D9B5"/>

  <!-- Queens: board=[0,4,7,5,2,6,1,3] -->
  <!-- Row0,Col0 --> <text x="82" y="96" text-anchor="middle" font-size="28" fill="#FFD700">♛</text>
  <!-- Row1,Col4 --> <text x="258" y="140" text-anchor="middle" font-size="28" fill="#FFD700">♛</text>
  <!-- Row2,Col7 --> <text x="390" y="184" text-anchor="middle" font-size="28" fill="#FFD700">♛</text>
  <!-- Row3,Col5 --> <text x="302" y="228" text-anchor="middle" font-size="28" fill="#FFD700">♛</text>
  <!-- Row4,Col2 --> <text x="170" y="272" text-anchor="middle" font-size="28" fill="#FFD700">♛</text>
  <!-- Row5,Col6 --> <text x="346" y="316" text-anchor="middle" font-size="28" fill="#FFD700">♛</text>
  <!-- Row6,Col1 --> <text x="126" y="360" text-anchor="middle" font-size="28" fill="#FFD700">♛</text>
  <!-- Row7,Col3 --> <text x="214" y="404" text-anchor="middle" font-size="28" fill="#FFD700">♛</text>

  <!-- Row labels -->
  <text x="48" y="92" text-anchor="middle" font-family="Segoe UI,Arial" font-size="11" fill="#8B949E">0</text>
  <text x="48" y="136" text-anchor="middle" font-family="Segoe UI,Arial" font-size="11" fill="#8B949E">1</text>
  <text x="48" y="180" text-anchor="middle" font-family="Segoe UI,Arial" font-size="11" fill="#8B949E">2</text>
  <text x="48" y="224" text-anchor="middle" font-family="Segoe UI,Arial" font-size="11" fill="#8B949E">3</text>
  <text x="48" y="268" text-anchor="middle" font-family="Segoe UI,Arial" font-size="11" fill="#8B949E">4</text>
  <text x="48" y="312" text-anchor="middle" font-family="Segoe UI,Arial" font-size="11" fill="#8B949E">5</text>
  <text x="48" y="356" text-anchor="middle" font-family="Segoe UI,Arial" font-size="11" fill="#8B949E">6</text>
  <text x="48" y="400" text-anchor="middle" font-family="Segoe UI,Arial" font-size="11" fill="#8B949E">7</text>
</svg>
