<svg xmlns="http://www.w3.org/2000/svg" width="520" height="560" viewBox="0 0 520 560">

  <!-- Dark outer background -->
  <rect width="520" height="560" rx="12" fill="#1a1a2e"/>

  <!-- Title -->
  <text x="260" y="28" text-anchor="middle" font-family="Segoe UI,Arial" font-size="14"
        font-weight="bold" fill="#58A6FF">N-Queens Solver — N=8, Solution #1</text>
  <text x="260" y="46" text-anchor="middle" font-family="Segoe UI,Arial" font-size="10"
        fill="#8B949E">board=[0,4,7,5,2,6,1,3] · No two queens attack each other</text>

  <!-- Board wood frame -->
  <rect x="44" y="56" width="432" height="432" rx="4" fill="#8B6914"/>

  <!-- Board cells: 8×8, cell=52px, origin (48,60) -->
  <!-- Row 0 -->
  <rect x="48"  y="60"  width="52" height="52" fill="#EEEED2"/>
  <rect x="100" y="60"  width="52" height="52" fill="#769656"/>
  <rect x="152" y="60"  width="52" height="52" fill="#EEEED2"/>
  <rect x="204" y="60"  width="52" height="52" fill="#769656"/>
  <rect x="256" y="60"  width="52" height="52" fill="#EEEED2"/>
  <rect x="308" y="60"  width="52" height="52" fill="#769656"/>
  <rect x="360" y="60"  width="52" height="52" fill="#EEEED2"/>
  <rect x="412" y="60"  width="52" height="52" fill="#769656"/>
  <!-- Row 1 -->
  <rect x="48"  y="112" width="52" height="52" fill="#769656"/>
  <rect x="100" y="112" width="52" height="52" fill="#EEEED2"/>
  <rect x="152" y="112" width="52" height="52" fill="#769656"/>
  <rect x="204" y="112" width="52" height="52" fill="#EEEED2"/>
  <rect x="256" y="112" width="52" height="52" fill="#769656"/>
  <rect x="308" y="112" width="52" height="52" fill="#EEEED2"/>
  <rect x="360" y="112" width="52" height="52" fill="#769656"/>
  <rect x="412" y="112" width="52" height="52" fill="#EEEED2"/>
  <!-- Row 2 -->
  <rect x="48"  y="164" width="52" height="52" fill="#EEEED2"/>
  <rect x="100" y="164" width="52" height="52" fill="#769656"/>
  <rect x="152" y="164" width="52" height="52" fill="#EEEED2"/>
  <rect x="204" y="164" width="52" height="52" fill="#769656"/>
  <rect x="256" y="164" width="52" height="52" fill="#EEEED2"/>
  <rect x="308" y="164" width="52" height="52" fill="#769656"/>
  <rect x="360" y="164" width="52" height="52" fill="#EEEED2"/>
  <rect x="412" y="164" width="52" height="52" fill="#769656"/>
  <!-- Row 3 -->
  <rect x="48"  y="216" width="52" height="52" fill="#769656"/>
  <rect x="100" y="216" width="52" height="52" fill="#EEEED2"/>
  <rect x="152" y="216" width="52" height="52" fill="#769656"/>
  <rect x="204" y="216" width="52" height="52" fill="#EEEED2"/>
  <rect x="256" y="216" width="52" height="52" fill="#769656"/>
  <rect x="308" y="216" width="52" height="52" fill="#EEEED2"/>
  <rect x="360" y="216" width="52" height="52" fill="#769656"/>
  <rect x="412" y="216" width="52" height="52" fill="#EEEED2"/>
  <!-- Row 4 -->
  <rect x="48"  y="268" width="52" height="52" fill="#EEEED2"/>
  <rect x="100" y="268" width="52" height="52" fill="#769656"/>
  <rect x="152" y="268" width="52" height="52" fill="#EEEED2"/>
  <rect x="204" y="268" width="52" height="52" fill="#769656"/>
  <rect x="256" y="268" width="52" height="52" fill="#EEEED2"/>
  <rect x="308" y="268" width="52" height="52" fill="#769656"/>
  <rect x="360" y="268" width="52" height="52" fill="#EEEED2"/>
  <rect x="412" y="268" width="52" height="52" fill="#769656"/>
  <!-- Row 5 -->
  <rect x="48"  y="320" width="52" height="52" fill="#769656"/>
  <rect x="100" y="320" width="52" height="52" fill="#EEEED2"/>
  <rect x="152" y="320" width="52" height="52" fill="#769656"/>
  <rect x="204" y="320" width="52" height="52" fill="#EEEED2"/>
  <rect x="256" y="320" width="52" height="52" fill="#769656"/>
  <rect x="308" y="320" width="52" height="52" fill="#EEEED2"/>
  <rect x="360" y="320" width="52" height="52" fill="#769656"/>
  <rect x="412" y="320" width="52" height="52" fill="#EEEED2"/>
  <!-- Row 6 -->
  <rect x="48"  y="372" width="52" height="52" fill="#EEEED2"/>
  <rect x="100" y="372" width="52" height="52" fill="#769656"/>
  <rect x="152" y="372" width="52" height="52" fill="#EEEED2"/>
  <rect x="204" y="372" width="52" height="52" fill="#769656"/>
  <rect x="256" y="372" width="52" height="52" fill="#EEEED2"/>
  <rect x="308" y="372" width="52" height="52" fill="#769656"/>
  <rect x="360" y="372" width="52" height="52" fill="#EEEED2"/>
  <rect x="412" y="372" width="52" height="52" fill="#769656"/>
  <!-- Row 7 -->
  <rect x="48"  y="424" width="52" height="52" fill="#769656"/>
  <rect x="100" y="424" width="52" height="52" fill="#EEEED2"/>
  <rect x="152" y="424" width="52" height="52" fill="#769656"/>
  <rect x="204" y="424" width="52" height="52" fill="#EEEED2"/>
  <rect x="256" y="424" width="52" height="52" fill="#769656"/>
  <rect x="308" y="424" width="52" height="52" fill="#EEEED2"/>
  <rect x="360" y="424" width="52" height="52" fill="#769656"/>
  <rect x="412" y="424" width="52" height="52" fill="#EEEED2"/>

  <!-- Queens: board=[0,4,7,5,2,6,1,3]                        -->
  <!-- Queen ♛ center: x = 48 + col*52 + 26, y = 60 + row*52 + 32 -->
  <!-- Row0 Col0 --> <text x="74"  y="92"  text-anchor="middle" font-size="36" fill="#FFD700" stroke="#8B6914" stroke-width="0.5">♛</text>
  <!-- Row1 Col4 --> <text x="282" y="144" text-anchor="middle" font-size="36" fill="#FFD700" stroke="#8B6914" stroke-width="0.5">♛</text>
  <!-- Row2 Col7 --> <text x="438" y="196" text-anchor="middle" font-size="36" fill="#FFD700" stroke="#8B6914" stroke-width="0.5">♛</text>
  <!-- Row3 Col5 --> <text x="334" y="248" text-anchor="middle" font-size="36" fill="#FFD700" stroke="#8B6914" stroke-width="0.5">♛</text>
  <!-- Row4 Col2 --> <text x="178" y="300" text-anchor="middle" font-size="36" fill="#FFD700" stroke="#8B6914" stroke-width="0.5">♛</text>
  <!-- Row5 Col6 --> <text x="386" y="352" text-anchor="middle" font-size="36" fill="#FFD700" stroke="#8B6914" stroke-width="0.5">♛</text>
  <!-- Row6 Col1 --> <text x="126" y="404" text-anchor="middle" font-size="36" fill="#FFD700" stroke="#8B6914" stroke-width="0.5">♛</text>
  <!-- Row7 Col3 --> <text x="230" y="456" text-anchor="middle" font-size="36" fill="#FFD700" stroke="#8B6914" stroke-width="0.5">♛</text>

  <!-- File labels a-h (bottom) -->
  <text x="74"  y="508" text-anchor="middle" font-family="Segoe UI,Arial" font-size="12" font-weight="bold" fill="#8B949E">a</text>
  <text x="126" y="508" text-anchor="middle" font-family="Segoe UI,Arial" font-size="12" font-weight="bold" fill="#8B949E">b</text>
  <text x="178" y="508" text-anchor="middle" font-family="Segoe UI,Arial" font-size="12" font-weight="bold" fill="#8B949E">c</text>
  <text x="230" y="508" text-anchor="middle" font-family="Segoe UI,Arial" font-size="12" font-weight="bold" fill="#8B949E">d</text>
  <text x="282" y="508" text-anchor="middle" font-family="Segoe UI,Arial" font-size="12" font-weight="bold" fill="#8B949E">e</text>
  <text x="334" y="508" text-anchor="middle" font-family="Segoe UI,Arial" font-size="12" font-weight="bold" fill="#8B949E">f</text>
  <text x="386" y="508" text-anchor="middle" font-family="Segoe UI,Arial" font-size="12" font-weight="bold" fill="#8B949E">g</text>
  <text x="438" y="508" text-anchor="middle" font-family="Segoe UI,Arial" font-size="12" font-weight="bold" fill="#8B949E">h</text>

  <!-- Rank labels 8-1 (left) -->
  <text x="30" y="92"  text-anchor="middle" font-family="Segoe UI,Arial" font-size="12" font-weight="bold" fill="#8B949E">8</text>
  <text x="30" y="144" text-anchor="middle" font-family="Segoe UI,Arial" font-size="12" font-weight="bold" fill="#8B949E">7</text>
  <text x="30" y="196" text-anchor="middle" font-family="Segoe UI,Arial" font-size="12" font-weight="bold" fill="#8B949E">6</text>
  <text x="30" y="248" text-anchor="middle" font-family="Segoe UI,Arial" font-size="12" font-weight="bold" fill="#8B949E">5</text>
  <text x="30" y="300" text-anchor="middle" font-family="Segoe UI,Arial" font-size="12" font-weight="bold" fill="#8B949E">4</text>
  <text x="30" y="352" text-anchor="middle" font-family="Segoe UI,Arial" font-size="12" font-weight="bold" fill="#8B949E">3</text>
  <text x="30" y="404" text-anchor="middle" font-family="Segoe UI,Arial" font-size="12" font-weight="bold" fill="#8B949E">2</text>
  <text x="30" y="456" text-anchor="middle" font-family="Segoe UI,Arial" font-size="12" font-weight="bold" fill="#8B949E">1</text>

  <!-- Footer -->
  <text x="260" y="538" text-anchor="middle" font-family="Segoe UI,Arial" font-size="10" fill="#8B949E">
    92 total solutions · Aksum University, AIT — Design and Analysis of Algorithms
  </text>
</svg>
